<?xml version="1.0" encoding="UTF-8"?>
<svg id="Capa_2" data-name="Capa 2" xmlns="http://www.w3.org/2000/svg" viewBox="0 0 1659.69 1165.28">
  <defs>
    <style>
      .cls-1 {
        fill: #f39;
      }

      .cls-1, .cls-2, .cls-3, .cls-4 {
        stroke-width: 0px;
      }

      .cls-2 {
        fill: #ff8431;
      }

      .cls-3 {
        fill: #ff5d31;
      }

      .cls-4 {
        fill: #ffb531;
      }
    </style>
  </defs>
  <g id="Capa_5" data-name="Capa 5">
    <g>
      <path class="cls-1" d="m1549.04,871.14c-.1.75-.13,1.5-.3,2.23-.31,1.36-.25,2.61.76,3.68,1.19,1.27,1.79,2.84,2.31,4.46.37,1.17.16,2.23-.61,3.16-1.32,1.59-2.59,3.19-4.22,4.51-2.48,2-4.8,4.19-7.18,6.32-.41.37-.77.82-1.08,1.29-.72,1.09-1.19,2.44-2.13,3.28-3.24,2.87-5.79,6.43-9.29,9.02-.45.33-.84.82-1.35,1.01-2.26.83-3.7,2.49-4.83,4.51-.18.32-.45.61-.73.85-3.12,2.72-6.09,5.56-8.53,8.95-.62.86-1.75,1.4-2.71,1.97-.82.49-1.76.65-2.72.38-1.08-.3-2.13-.84-3.29-.56-2.06.48-3.59-.51-5.16-1.64-4.61-3.31-8.45-7.44-12.37-11.48-.65-.67-1.2-1.46-1.91-2.06-8.07-6.79-15.22-14.53-22.38-22.22-5.75-6.18-11.05-12.78-16.53-19.22-2.31-2.72-4.52-5.53-6.84-8.24-.85-.99-1.87-1.83-2.85-2.7-.46-.41-1.66-.44-2.15-.1-.61.43-1.24.85-1.79,1.36-6.17,5.77-12.26,11.63-18.49,17.33-4.7,4.31-9.34,8.71-14.45,12.56-.6.45-1.15.96-1.72,1.46-4.53,3.95-9.15,7.78-13.95,11.4-5.39,4.07-10.49,8.51-15.8,12.69-2.8,2.2-5.77,4.19-8.67,6.26-1.07.76-2.22,1.42-3.24,2.24-10.11,8.13-20.7,15.58-31.58,22.66-15.44,10.04-31.24,19.48-47.34,28.42-3.78,2.1-7.63,4.06-11.49,6.01-6.54,3.3-13.11,6.54-19.66,9.82-1.01.5-1.97,1.1-2.93,1.68-.51.31-.9,1.47-.66,2.03.6,1.38,1.2,2.75,1.86,4.1,4.99,10.11,10.06,20.17,14.98,30.32,2.95,6.08,5.8,12.22,8.43,18.45,1.45,3.45,2.29,7.15,3.5,10.7,1.16,3.39,2.07,6.84,2.54,10.38.43,3.16.8,6.34.86,9.52.04,1.84-.51,3.7-.94,5.52-.17.72-.84,1.31-1.6,1.45-1.84.34-3.69.7-5.55.81-1.9.12-3.7.48-5.48,1.14-5.65,2.08-11.38,3.84-17.39,4.59-2.7.34-5,1.52-6.69,3.77-.56.74-1.27,1.38-1.97,2-1.44,1.28-2.51,2.77-3,4.66-.33,1.31-1.13,2.35-2.04,3.33-1.41,1.52-2.84,1.73-4.5.6-1.24-.85-2.46-1.72-3.69-2.59-1.55-1.1-3.17-2-5.15-2.04-1.4-.03-2.48-.8-3.43-1.75-1.06-1.07-2.24-2.06-3.07-3.29-1.94-2.85-4.47-5.03-7.2-7.07-1.35-1-2.51-2.26-3.7-3.45-.98-.98-1.5-2.18-1.2-3.59.38-1.78-.17-3.29-1.07-4.81-7.97-13.4-15.85-26.85-23.16-40.63-1.67-3.15-3.57-6.18-5.49-9.19-1.53-2.38-2.39-2.57-5.24-1.68-.54.17-1.08.33-1.61.53-17.26,6.45-34.82,11.94-52.58,16.83-6.7,1.84-13.37,3.81-20.12,5.48-11.85,2.93-23.7,5.87-35.74,7.98-2.77.48-5.49,1.28-8.24,1.87-9,1.92-18.12,3.21-27.18,4.84-7.77,1.39-15.57,2.57-23.38,3.67-4.83.68-9.69,1.23-14.53,1.81-3.73.45-7.46.86-11.19,1.28-4.66.53-9.32,1.12-13.99,1.59-2.99.3-6,.4-8.99.6-1.5.1-3,.22-4.37.96-.88.48-1.39,1.23-1.46,2.24-.03.37-.02.75.02,1.12.91,7.45,1.93,14.9,2.72,22.36.63,5.97.97,11.98,1.45,17.97.21,2.62.44,5.24.66,7.86.14,1.68.31,3.37.4,5.05.21,4.13.42,8.24.86,12.36.4,3.72.26,7.5.27,11.26,0,1.11-.26,2.24-.54,3.32-.4,1.55-1.31,2.74-2.96,3.06-1.97.38-3.4,1.41-4.53,3.04-.68.98-1.79,1.37-2.95,1.41-2.25.07-4.51.12-6.76.09-4.33-.07-8.64-.04-12.92.74-.92.17-1.92.4-2.79.19-3.36-.78-6.74.09-10.09-.32-.74-.09-1.52-.11-2.24.03-3.18.61-6.34.38-9.53.01-3.36-.39-6.75-.46-10.11,0-1.53.21-2.97.13-4.44-.35-1.51-.49-2.75-1.26-3.26-2.83-.49-1.5-1.37-2.62-2.72-3.45-1.2-.74-1.72-1.99-1.86-3.33-.17-1.68-.29-3.37-.29-5.06.01-8.27.07-16.53.12-24.8,0-.94-.03-1.89.11-2.81,1.12-7.48.56-15,.73-22.51.16-6.97-.72-13.87-1.03-20.81-.02-.37-.11-.74-.17-1.11-.19-1.1-1.18-2.13-2.24-2.23-1.31-.11-2.62-.18-3.93-.19-6.58-.08-13.15-.1-19.73-.24-3-.06-5.99-.35-8.99-.51-3-.15-6-.3-9.01-.38-4.88-.13-9.77-.07-14.62-.82-1.48-.23-3-.19-4.5-.25-4.13-.15-8.27-.16-12.35-.91-.74-.14-1.5-.16-2.25-.19-7.71-.23-15.35-1.23-22.99-2.16-10.06-1.23-20.16-2.25-30.2-3.64-10.97-1.52-21.9-3.37-32.86-5.04-9.29-1.42-18.42-3.66-27.66-5.37-15.53-2.87-30.81-6.8-46.16-10.47-2.01-.48-4-1.05-5.99-1.59-.91-.25-1.79-.57-2.71-.78-3.17-.74-4.58-.12-5.83,2.82-1.47,3.45-2.87,6.94-4.17,10.47-1.75,4.76-3.32,9.58-5.06,14.34-3.99,10.94-7.93,21.9-12.11,32.77-1.89,4.92-3.55,9.88-4.84,14.99-1.38,5.46-3.01,10.85-4.65,16.24-.43,1.41-1.18,2.76-1.97,4.03-.99,1.59-2.18,3.05-3.28,4.58-1,1.39-2.4,1.81-3.98,1.41-1.82-.45-3.62-1.01-5.39-1.62-2.14-.75-4.29-1.34-6.56-1.57-5.08-.51-9.88-2.24-14.8-3.42-.72-.17-1.4-.54-2.08-.84-.69-.3-1.33-.78-2.05-.92-5.55-1.12-10.73-3.32-15.96-5.38-1.23-.48-2.46-.96-3.81-.86-2.98.22-5.44-1.24-7.97-2.44-.7-.33-1.17-1.03-1.17-1.81,0-2.07-.28-4.09-.69-6.12-.44-2.22-.17-4.49.21-6.73,1.05-6.11,2.08-12.22,3.14-18.32.36-2.05,1-3.99,1.94-5.86.84-1.67,1.55-3.42,2.21-5.17,2.77-7.39,5.45-14.8,8.25-22.18,4.87-12.82,10.18-25.46,15.65-38.03.15-.34.22-.72.33-1.08.2-.64-.17-1.71-.73-1.98-1.02-.48-2.04-.96-3.09-1.35-6.87-2.55-13.77-5.01-20.62-7.61-7.72-2.94-15.42-5.97-23.1-9.01-2.97-1.18-5.88-2.49-8.81-3.76-3.62-1.57-7.2-3.22-10.85-4.72-11.82-4.87-23.32-10.42-34.86-15.89-10.86-5.14-21.52-10.74-32.25-16.14-1.01-.51-2.03-1.02-2.93-1.69-3.5-2.59-7.47-4.32-11.26-6.36-4.46-2.4-9.07-4.49-13.17-7.56-2.08-1.56-4.62-2.49-6.91-3.78-2.62-1.47-5.16-3.08-7.78-4.54-5.75-3.2-11.16-6.94-16.79-10.33-3.05-1.84-6.24-3.44-8.87-5.92-.81-.76-1.84-1.31-2.81-1.87-2.11-1.22-4.24-2.4-6.37-3.59-1.38-.77-2.87-.97-4.37-.59-2.44.62-4.7,1.84-5.88,4.07-3.99,7.55-9.78,13.76-14.9,20.47-6.95,9.11-14.1,18.07-21.64,26.69-7.43,8.49-14.21,17.49-21.46,26.12-1.93,2.3-3.85,4.61-5.81,6.89-1.85,2.15-3.88,4.09-6.41,5.44-1.07.57-2.17.6-3.19-.12-.61-.43-1.23-.88-1.75-1.41-3.57-3.66-7.79-6.52-12.07-9.21-4.03-2.52-7.46-5.68-10.78-8.99-4.03-4.02-8.42-7.47-13.63-9.82-1.56-.7-3.1-1.29-4.86-1.16-1.54.11-2.97-.4-4.23-1.29-.64-.46-.97-1.12-.94-1.93,0-.19-.02-.39.04-.56.95-2.73.86-5.56.58-8.36-.18-1.77.2-3.35.98-4.89.17-.34.32-.68.52-1,2.66-4.34,4.89-8.87,6.38-13.77.32-1.06.93-2.05,1.45-3.05.8-1.54,1.87-2.8,3.59-3.39,1.3-.45,2.17-1.41,2.96-2.5,7.94-10.99,17.04-20.97,26.37-30.77,5.3-5.58,10.34-11.41,15.52-17.11,2.15-2.36,4.38-4.65,6.5-7.04,1.37-1.54,2.63-3.17,3.87-4.82.69-.92.47-2.21-.41-3.08-.67-.66-1.35-1.31-2.07-1.91-6.22-5.15-12.36-10.4-18.72-15.37-4-3.12-7.46-6.88-11.69-9.71-.62-.41-1.15-.97-1.68-1.5-5.93-6.04-12.6-11.25-18.99-16.78-.42-.37-.85-.78-1.35-1-.67-.29-1.4-.5-2.13-.57-.54-.06-1.12.12-1.66.25-1.63.4-3.03-.1-4.12-1.23-2.75-2.82-6.07-4.98-8.68-8-2.44-2.82-5.47-5.13-8.18-7.73-3.93-3.77-7.81-7.6-11.71-11.4-2.45-2.38-4.52-5.03-5.73-8.27-.35-.94-.2-1.85.39-2.67,1.32-1.86,3.05-3.3,4.81-4.72,1.46-1.18,2.88-2.41,4.39-3.53,2.15-1.6,3.77-3.48,4.94-5.97,1.18-2.51,2.91-4.82,4.69-6.97,1.67-2.01,3.65-3.79,5.63-5.51,2.7-2.34,5.19-4.88,7.71-7.4,2.78-2.78,5.5-5.62,8.51-8.17,2.57-2.18,4.94-4.62,7.29-7.05,1.17-1.21,2.29-2.54,3.07-4.01,1.14-2.16,3.01-3.27,5.06-4.27,1.44-.7,2.88-.77,4.34-.1.17.08.35.14.51.24,1.57,1.03,3.15.94,4.82.19,1.31-.59,2.59-.24,3.71.59.75.56,1.47,1.17,2.16,1.81,1.1,1.02,2.15,2.1,3.25,3.13,6.56,6.18,13.14,12.34,19.7,18.53,6.83,6.45,13.79,12.75,20.9,18.88,6.26,5.4,12.36,10.98,18.76,16.2,9.32,7.6,18.83,14.96,28.27,22.39,9.31,7.32,18.99,14.13,28.72,20.86,10.82,7.47,21.78,14.75,33,21.6,7.54,4.6,14.99,9.34,22.59,13.83,7.27,4.3,14.55,8.62,22.06,12.49,11.52,5.93,22.87,12.21,34.63,17.66,5.62,2.61,11.21,5.3,16.81,7.95,1.36.64,2.73,1.26,4.05,1.97,5.79,3.14,11.99,5.37,17.94,8.15,9.38,4.38,19.01,8.08,28.76,11.51,5.63,3.12,11.89,4.62,17.85,6.87,6.67,2.52,13.48,4.7,20.24,6.97,5.88,1.97,11.76,3.91,17.67,5.78,20.06,6.35,40.37,11.84,60.8,16.88,14.23,3.51,28.6,6.34,42.97,9.18,13.27,2.62,26.63,4.7,40.02,6.59,9.11,1.29,18.23,2.55,27.39,3.38,9.35.85,18.64,2.34,28.04,2.65,6.14,1.07,12.35.97,18.54,1.13,1.31.03,2.64.05,3.94.24,4.48.67,8.98.68,13.49.72,12.21.08,24.42.19,36.63.31,2.63.02,5.26.16,7.89.16,2.63,0,5.25-.09,7.88-.15,4.32-.09,8.64-.12,12.96-.29,2.62-.1,5.24-.39,7.86-.6.75-.06,1.5-.21,2.24-.21,7.15-.05,14.24-.94,21.36-1.37,2.81-.17,5.61-.5,8.41-.78,4.48-.45,8.96-1.02,13.45-1.35,11.25-.82,22.39-2.48,33.52-4.22,2.41-.38,4.84-.64,7.25-1.02,20.43-3.17,40.66-7.3,60.77-12.07,5.48-1.3,10.95-2.64,16.42-3.99,2.19-.54,4.35-1.17,6.52-1.78.9-.25,1.78-.63,2.69-.82,7.93-1.63,15.56-4.26,23.18-6.96,1.95-.69,3.95-1.22,5.92-1.83,12.75-3.93,25.32-8.4,37.72-13.33,1.4-.56,2.79-1.12,4.22-1.6,6.96-2.32,13.68-5.23,20.32-8.34.51-.24,1.01-.52,1.54-.7,6.79-2.27,13.06-5.73,19.58-8.6,4.63-2.03,9.12-4.39,13.83-6.27.35-.14.7-.3,1-.52,5.55-3.94,11.89-6.42,17.83-9.63,8.76-4.74,17.39-9.71,25.86-14.93,9.44-5.81,18.87-11.63,28.13-17.72,6.74-4.44,13.2-9.3,19.78-13.99,2.29-1.64,4.55-3.33,6.83-4.98,7.75-5.64,15.13-11.74,22.54-17.81,6.68-5.48,13.11-11.25,19.57-16.98,12.1-10.74,23.34-22.34,34.54-33.99,4.16-4.33,8.05-8.93,11.96-13.49,4.65-5.41,9.27-10.86,13.79-16.38,6.9-8.44,13.44-17.15,19.76-26.03,8.51-11.94,16.44-24.25,24.18-36.7,2.21-3.55,4.86-6.67,7.96-9.44,1.06-.95,2.4-1.14,3.65-.4,1.77,1.05,3.61,2.06,5.21,3.34,2.82,2.26,5.94,3.97,9.2,5.43,5.5,2.46,10.88,5.11,15.85,8.53,1.08.74,2.28,1.3,3.43,1.95.65.37,1.38.65,1.94,1.13,5.87,5.01,12.68,8.69,18.77,13.39,2.69,2.07,5.66,3.7,8.95,4.68,2.74.82,4.31,2.9,5.51,5.3.31.61.32,1.49.19,2.19-.17.91-.51,1.83-.98,2.62-2.75,4.7-5.08,9.63-8.07,14.21-4.42,6.76-8.51,13.73-12.94,20.49-7.83,11.95-16.19,23.51-24.92,34.82-1.15,1.48-2.21,3.03-3.29,4.57-.39.56-.28,1.59.19,2.11.62.7,1.24,1.41,1.92,2.06,8.67,8.32,17.24,16.77,26.08,24.91,5.53,5.09,10.96,10.27,16.45,15.41,4.11,3.85,8.25,7.68,12.42,11.47,2.53,2.3,4.56,4.97,6.28,7.91.95,1.62,1.99,3.18,2.9,4.82.66,1.18.26,2.11-1.2,2.56-.36.11-.73.15-1.1.22-.36,0-.73,0-1.09,0,0,0-.05-.05-.05-.05.39,0,.79,0,1.18,0Z"/>
      <path class="cls-4" d="m1159.56,202.03c-2.28.45-4.14,1.77-5.98,3.06-12.33,8.6-24.69,17.14-36.93,25.87-10.1,7.2-19.96,14.72-30.07,21.9-10.41,7.4-20.93,14.65-31.53,21.78-7.32,4.92-14.89,9.49-22.31,14.27-2.84,1.83-5.54,3.87-8.34,5.76-2.02,1.36-4.09,2.64-6.16,3.94-1.47.92-2.66,2.06-3.28,3.74-.51,1.39-1.63,2.06-3.07,2.04-3.57-.06-7.13-.15-10.7-.34-.69-.04-1.46-.42-2-.88-.69-.59-1.08-1.56-1.8-2.1-.71-.53-1.86-.16-2.56-.94-.69-.77-1.54-.94-2.55-.76-1.28.24-2.59.48-3.88.49-1.17,0-2.17-.61-2.65-1.78-.43-1.04-.76-2.12-1.2-3.15-.45-1.04-1.67-1.7-2.79-1.43-1.27.31-2.49.79-3.74,1.17-.89.27-1.79.65-2.7.71-.69.04-1.46-.25-2.1-.58-.48-.24-.93-.7-1.18-1.17-1.53-2.86-4-3.78-7.06-3.66-.93.04-1.88-.02-2.81-.11-1.54-.15-2.87-1.33-3.17-2.79-.39-1.84-.83-3.74-.4-5.59.87-3.78.4-7.54-.33-11.19-1.92-9.6-2.73-19.34-3.95-29.02-1.15-9.13-1.96-18.3-2.87-27.45-.35-3.55-.5-7.12-.7-10.68-.28-4.87-.5-9.75-.78-14.62-.35-6-.78-11.99-1.09-17.99-.29-5.44-.43-10.88-.7-16.32-.63-12.37-.84-24.77-2.24-37.1-.68-5.97-1.08-11.97-1.68-17.95-.88-8.79-2.41-17.49-3.99-26.17-1.72-9.42-3.43-18.85-5.22-28.26-.63-3.31-1.07-6.66-2.76-9.71-.6-1.08-.62-2.53-.71-3.83-.19-2.81-.23-5.62-.39-8.43-.16-2.73.66-5.2,1.88-7.56.32-.62,1-1.11,1.6-1.53,1.04-.71,1.5-1.64,1.37-2.87-.23-2.18.53-4.06,1.75-5.8.68-.97,1.62-1.61,2.8-1.69,1.49-.1,3.01-.17,4.5-.07,2.49.18,4.82-.23,7.17-1.06,7.5-2.66,7.54-2.7,15.32-1.04,3.17.68,6.25.91,9.48.62,2.98-.27,6.01-.06,9.01.08,4.33.19,8.66.33,12.89-.81,3.47-.93,6.68-.24,9.9,1.02,1.51.59,2.65,1.48,2.86,3.15.35,2.85,1.9,4.79,4.32,6.21,2.66,1.56,4.55,3.86,6.02,6.55.92,1.68,1.5,3.41,1.64,5.33.27,3.75.56,7.48.65,11.25.15,6.19.58,12.38.92,18.56.25,4.69.53,9.37.83,14.06.27,4.31.55,8.62.89,12.93.34,4.3.77,8.6,1.14,12.91.95,11.04,1.93,22.07,2.83,33.11.61,7.48,1.09,14.98,1.66,22.47.34,4.49.78,8.98,1.09,13.48.32,4.68.56,9.37.82,14.06.37,6.75.73,13.49,1.06,20.24.08,1.69.04,3.38.07,5.07.03,1.5.01,3.01.15,4.5.48,5.48.96,5.75,5.41,2.69,11.92-8.2,23.84-16.39,35.69-24.69,18-12.62,35.99-25.24,54.27-37.47,7.03-4.7,14.33-8.96,21.7-13.11,1.96-1.1,4.05-1.96,6.12-2.86,1.04-.45,2.22-.76,3.3-.39,3.81,1.33,7.76,1.3,11.69,1.41,2.29.06,4.45.38,6.49,1.55,1.11.64,2.47.87,3.73,1.23,3.06.9,6.15,1.72,9.2,2.66,3.77,1.16,7.49,2.5,10.94,4.46,1.14.65,2.26,1.35,3.32,2.12.77.57,1.27,1.38,1.28,2.4,0,.75-.06,1.51,0,2.25.32,4.55,2.37,8.33,5.79,11.17,2.2,1.83,3.37,3.99,3.76,6.67,1.16,8.03,3.61,15.74,5.77,23.51,5.04,18.1,10.47,36.08,15.53,54.17,4.66,16.64,9.45,33.24,13.99,49.91.49,1.81,1.1,3.58,1.69,5.36.24.73,1.25.97,1.86.46,1.14-.97,2.38-1.87,3.37-2.98,4.03-4.48,8.66-8.33,13.02-12.47,2.32-2.2,4.69-4.34,6.94-6.6,7.16-7.19,14.5-14.18,21.81-21.22,5-4.82,9.8-9.86,14.78-14.7,4.58-4.45,9.3-8.76,13.93-13.16,5.17-4.92,10.3-9.89,15.45-14.83,1.08-1.04,2.19-2.06,3.29-3.09,6.04-5.64,12.2-11.17,18.08-16.97,4.42-4.35,8.91-8.62,13.42-12.87.68-.64,1.35-1.32,1.91-2.06,1.72-2.27,3.82-4.11,6.1-5.81,1.03-.77,2.07-1.7,2.71-2.79,1-1.7,2.15-2.96,4.09-3.59,1.02-.33,1.98-1.1,2.78-1.86,1.77-1.67,3.46-3.44,5.11-5.23,1.53-1.65,2.91-3.45,4.46-5.08,1.13-1.18,2.67-1.7,4.1-.78,2.42,1.55,4.39,1.21,6.64-.47,1.62-1.21,3.67-1.85,5.56-2.67,1.12-.49,2.23-.33,3.13.53.95.91,1.89,1.83,2.76,2.81,1.45,1.63,3.18,2.6,5.41,2.59.56,0,1.15-.03,1.68.1,1.56.38,2.93.07,4.31-.74,1.06-.62,2.16-.48,3.04.51.75.84,1.45,1.74,2.28,2.49,1.01.91,1.64,2.01,2.17,3.23,1.28,2.92,2.69,5.79,3.96,8.72.67,1.54,1.28,3.13,1.7,4.75.53,2.04,1.41,3.88,2.58,5.6,1.16,1.71,2.41,3.36,3.53,5.09.81,1.26,1.49,2.6,2.15,3.94.44.89.14,1.83-.75,2.46-1.69,1.19-3.43,2.31-4.76,3.93-.43.53-.51,1.57-.04,2.09.62.7,1.32,1.33,1.92,2.04.99,1.16.93,2.35-.13,3.52-4.05,4.44-8.1,8.87-12.16,13.3-.76.83-1.55,1.64-2.37,2.41-5.47,5.16-10.45,10.79-15.81,16.06-5.76,5.67-11.2,11.63-16.63,17.62-4.29,4.73-8.55,9.49-12.88,14.18-4.21,4.55-8.43,9.09-12.76,13.53-8.01,8.2-16.13,16.28-24.14,24.47-7.75,7.92-15.75,15.6-23.03,23.98-3.33,3.83-6.62,7.68-9.83,11.61-7.39,9.02-14.99,17.83-23.79,25.54-2.25,1.97-4.24,4.25-6.32,6.41-3.52,3.65-7.06,7.28-10.5,11-3.83,4.13-7.57,8.35-11.33,12.54-2.76,3.08-5.41,6.25-8.27,9.24-1.81,1.89-3.87,3.55-5.88,5.24-1.73,1.45-3.59,2.73-5.3,4.2-2.56,2.2-5.1,4.43-6.81,7.44-.88,1.55-2.92,1.87-4.46.8-2.47-1.71-4.92-3.46-7.28-5.31-8.02-6.27-16.86-11.25-25.54-16.49-1.8-1.09-3.66-1.86-5.86-1.53-1.37.2-2.61-.31-3.55-1.35-1.42-1.58-3.18-2.58-5.16-3.3-1.5-.54-2.38-1.74-2.95-3.21-1.54-4.04-3.17-8.04-4.67-12.09-1.63-4.41-2.79-8.98-3.68-13.59-1.59-8.3-3.11-16.62-4.57-24.94-4.23-24.05-8.78-48.04-13.94-71.91-3.89-17.99-7.51-36.04-10.19-54.27-.66-4.47-1.14-8.94-.64-13.46,0,0,.04.05.04.05Z"/>
      <path class="cls-2" d="m597.47,309.08c-.63,13.51-1.32,27.01-1.87,40.53-.19,4.71-1.03,9.32-1.58,13.98-.06.55-.25,1.1-.43,1.63-.39,1.12-1.12,1.96-2.27,2.32-.89.28-1.82.47-2.73.68-1.26.3-2.96-.09-3.69,1.03-.99,1.53-1.75,3.3-1.91,5.2-.03.37.02.75.03,1.13.1,2.44-.61,4.36-2.96,5.59-1.13.59-2.04,1.62-3.03,2.48-1.27,1.11-2.5,2.27-3.78,3.38-3.03,2.63-6.4,4.56-10.44,5.22-1.47.24-2.96.6-4.35,1.13-5.14,1.96-10.5,2.88-15.91,3.57-2.8.36-5.58.72-8.28,1.6-.53.17-1.1.24-1.65.31-1.31.17-2.69-.6-3.23-1.8-.23-.51-.45-1.04-.59-1.58-.44-1.71-1.29-3.1-2.86-4.01-1.65-.96-2.15-2.52-2.14-4.31,0-1.5.1-3.01.06-4.51-.06-2.81-.19-5.63-.29-8.44-.06-1.69-.13-3.38-.21-5.06-.11-2.44-.29-4.87-.32-7.31-.04-4.13-.06-8.26.04-12.39.09-3.57.22-7.12-.16-10.69-.22-2.04-.1-4.13-.03-6.19.3-8.26.65-16.51.96-24.77.04-1.12.11-2.27-.03-3.37-.48-3.75-.22-7.5-.1-11.25.21-6.57.65-13.15.47-19.71-.21-7.52.14-15.02-.03-22.52-.16-6.76.06-13.53-.22-20.27-.26-6.2.09-12.4-.23-18.58-.37-7.14.13-14.28-.13-21.4-.55-14.86.53-29.66.98-44.48.17-5.44.3-10.89.52-16.33.1-2.44.41-4.86.55-7.3.46-8.06.88-16.13,1.32-24.19.2-3.57.17-7.12-.12-10.69-.34-4.3-.47-8.63-.48-12.94-.01-3.44,1.05-6.67,2.68-9.68.98-1.81,2.05-3.59,3.17-5.32,1.06-1.64,1.55-3.4,1.52-5.33-.03-2.07-.09-4.13-.11-6.2-.02-2.3.59-3.14,2.64-3.68.73-.19,1.48-.29,2.2-.48,1.46-.39,2.83-.93,3.91-2.1,1.07-1.15,2.48-1.67,4.04-1.74,3.42-.15,6.65-1.11,9.87-2.18,10.87-3.62,21.89-6.77,32.95-9.73,3.63-.97,7.3-1.77,10.94-2.69,4.4-1.1,8.58-.2,12.67,1.35.67.25,1.38.75,1.77,1.33,1.49,2.22,3.59,3.8,5.49,5.61,3.41,3.22,6.66,6.61,9.98,9.93.93.93,1.72,2.13,2.83,2.72,2.9,1.55,4.88,3.95,6.88,6.44,1.52,1.89,3.41,3.49,5.15,5.2.67.66,1.47,1.2,2.06,1.92,2.91,3.54,6.62,6.06,10.46,8.46,10.18,6.39,20.03,13.28,29.89,20.15,5.55,3.87,10.97,7.9,16.39,11.93,2.86,2.13,5.9,4.01,8.78,6.12,6.06,4.43,12.13,8.87,18.1,13.42,11.8,8.99,23.53,18.07,35.3,27.11,4.77,3.66,9.56,7.29,14.34,10.93,5.23,3.98,10.42,8.01,15.7,11.92,8.9,6.6,18.02,12.9,27.25,19.02,10.02,6.64,20.26,12.94,30.59,19.08,3.23,1.92,6.56,3.66,9.83,5.5,1.47.83,2.95,1.66,4.35,2.59,1.67,1.11,1.96,2.43,1.12,4.42-.96,2.24-1.98,4.46-2.85,6.74-1.18,3.08-1.45,6.21-.05,9.32.64,1.42.76,2.89.36,4.4-.14.54-.36,1.11-.31,1.65.26,3.04-1.38,4.9-3.77,6.37-2.58,1.58-4.73,3.68-6.88,5.79-2.55,2.5-5.17,4.92-7.87,7.26-4,3.47-7.66,7.18-10.09,11.97-.63,1.24-1.76,2.02-3.19,1.97-3.5-.12-6.63,1.08-9.73,2.46-1.73.77-3.51,1.4-5.43,1.34-2.13-.07-4.09.42-5.96,1.39-.16.09-.35.12-.53.18-1.78.63-3.35.19-4.68-1.06-1.09-1.03-2.09-2.16-3.14-3.23-2.11-2.14-4.17-4.33-6.36-6.38-2.2-2.06-4.58-3.91-7.65-4.56-.36-.08-.76-.17-1.06-.38-4.58-3.23-10.06-5.14-13.87-9.52-.97-1.12-2.24-1.99-3.42-2.92-8.27-6.5-16.6-12.92-24.81-19.49-6.6-5.28-13.05-10.74-19.58-16.09-.86-.71-1.82-1.31-2.75-1.93-.56-.37-1.65-.22-2.11.22-.27.26-.57.51-.75.82-.8,1.42-1.98,2.19-3.59,2.41-.73.1-1.53.27-2.14.66-2.02,1.31-4.13,1.55-6.46,1.06-1.48-.31-2.99-.02-4.45.38-1.99.55-4.02,1-5.97,1.66-14.76,5.01-29.5,10.07-44.25,15.1-4.26,1.45-8.56,2.82-12.81,4.32-5.49,1.93-10.95,3.94-16.42,5.92-1.94.7-3.87,1.44-5.81,2.16-5.81,2.14-11.63,4.27-17.44,6.41-.18.06-.34.16-.51.23-1.67.73-2.77,1.95-2.97,3.79-.2,1.87-.32,3.74-.41,5.62-.61,12.95-1.2,25.89-1.8,38.84-.05,1.13-.11,2.25-.16,3.38h.02Z"/>
      <path class="cls-3" d="m425.02,432.36c-.49,1.91.24,3.58,1.54,5.07,2.36,2.68,4.71,5.37,7.1,8.02,2.9,3.22,5.47,6.67,7.88,10.26,1.3,1.94,2.11,3.98,2.1,6.3-.01,1.98.65,3.64,1.96,5.11,1.12,1.27,1.12,2.76.43,4.22-.88,1.87-1.8,3.72-2.8,5.52-1.04,1.87-1.64,3.78-1.08,5.93.09.35.07.75.05,1.12-.04.99-.46,1.82-1.23,2.43-1.64,1.29-3.52,2.17-5.48,2.83-5.01,1.67-9.57,4.35-14.39,6.44-.68.3-1.31.73-1.94,1.14-1.52.99-1.93,2.05-1.52,3.84.21.91.45,1.81.62,2.73.13.67-.44,1.54-1.1,1.8-.35.14-.7.29-1.06.38-1.84.46-3.58,1.13-5.17,2.18-1.64,1.08-3.41,1.32-5.37,1.19-1.66-.11-3.36.2-5.04.32-1.52.11-3.03.07-4.38-.72-3.16-1.85-6.72-2.32-10.21-3.01-4.79-.94-9.61-1.74-14.4-2.66-5.01-.95-10.05-1.36-15.14-.93-8.79.74-17.58,1.57-26.37,2.31-6.92.59-13.84,1.22-20.8,1-1.13-.04-2.26-.08-3.38.01-8.08.66-16.14-.14-24.21-.37-3-.09-6-.27-9-.48-1.87-.13-3.73-.4-5.59-.6-.93-.1-1.87-.28-2.79-.23-8.09.42-16.13-.47-24.2-.65-2.63-.06-5.25-.21-7.88-.33-20.07-.97-40.15-1.94-60.22-2.95-2.62-.13-5.22-.61-7.83-.85-1.86-.18-3.73-.27-5.6-.33-.28,0-.7.34-.82.62-.11.27-.01.73.16,1.01.29.47.7.88,1.08,1.29,5.62,6.05,11.35,12.01,16.84,18.18,6.24,7,12.72,13.81,18.53,21.2,5.01,6.37,10.89,11.92,16.88,17.34,8.64,7.82,16.89,16.02,24.98,24.4,3.65,3.78,7.43,7.44,11.08,11.22,4.04,4.19,7.98,8.48,12,12.69,1.94,2.04,4.05,3.92,5.9,6.04,2.35,2.68,4.52,5.51,6.75,8.29,2.48,3.09,3.22,6.7,3.06,10.57-.04.99-.52,1.78-1.25,2.43-.28.25-.55.53-.88.7-5.21,2.6-9.64,6.5-15.07,8.77-3.53,1.48-6.36,3.97-8.11,7.5-.16.33-.41.63-.63.93-.64.9-1.89,1.23-3.03.88-1.64-.5-3.1-1.36-4.44-2.39-3.57-2.75-7.16-5.48-10.65-8.33-8.6-6.99-16.7-14.56-24.76-22.16-4.37-4.12-8.73-8.26-13.06-12.42-3.93-3.77-7.83-7.57-11.72-11.38-5.91-5.77-11.68-11.69-17.53-17.53-6.52-6.5-12.67-13.35-18.94-20.08-7.56-8.11-15.29-16.04-23.36-23.63-4.65-4.37-9.12-8.93-13.53-13.53-2.59-2.71-4.96-5.64-7.35-8.53-3.47-4.2-6.96-8.39-10.26-12.71-3.76-4.93-7.33-10-10.96-15.01-2.32-3.19-4.61-6.4-6.91-9.6-.33-.46-.65-.92-.95-1.39-.68-1.09-.55-2.76.33-3.68.52-.54,1.09-1.02,1.64-1.53.96-.9,1.94-1.77,2.86-2.7,2.52-2.51,4.99-5.07,7.53-7.56.66-.65,1.46-1.19,2.26-1.67,2.93-1.76,5.44-4.01,7.62-6.63,1.46-1.75,3.01-3.31,5.31-3.99.85-.25,1.65-.91,2.3-1.55,1.47-1.45,2.87-2.97,4.23-4.53,2.05-2.36,4.55-3.89,7.63-4.46,2.58-.48,5.16-1.09,7.76-1.36,8.78-.9,17.57-1.67,26.35-2.48,8.41-.78,16.81-1.62,25.2-2.69,12.29-1.56,24.6-2.95,36.92-4.25,4.85-.51,9.74-.59,14.61-.84,6.56-.33,13.12-.64,19.67-.96.56-.03,1.13-.04,1.69-.06,5.82-.18,11.64-.29,17.45-.58,3.75-.19,7.49-.57,11.22-.98,9.89-1.07,19.77-2.21,29.66-3.3,2.23-.25,4.47-.38,6.71-.59.49-.04.94-.92.73-1.34-.25-.5-.46-1.03-.78-1.48-1.43-1.98-2.87-3.95-4.34-5.9-10.54-13.95-20.37-28.37-29.62-43.2-8.45-13.54-17.11-26.95-25.62-40.45-3.3-5.24-6.46-10.58-9.66-15.89-2.04-3.38-4.04-6.77-6.04-10.17-1.52-2.59-3.05-5.14-5.2-7.32-1.87-1.9-3.14-4.22-3.08-7.05-1.17-3.89-.42-7.83-.21-11.75.05-.86.54-1.83,1.1-2.52,5.19-6.45,10.93-12.36,17.11-17.88,5.05-4.51,10.21-8.85,15.79-12.71,1.43-.99,2.88-1.73,4.54-2.13.55-.13,1.1-.24,1.66-.34,2.48-.41,4.65-1.31,6.26-3.4.76-.98,1.98-.95,3.11-.48.52.22,1.02.49,1.49.79,2.72,1.72,5.51,2.2,8.53.72,1.11-.54,2.25-.07,3.14.68.85.72,1.68,1.52,2.33,2.41.88,1.21,1.63,2.52,2.38,3.82,1.6,2.77,3.2,5.51,5.46,7.83.9.92,1.75,2.04,2.22,3.22,1.27,3.18,3.18,5.97,5.01,8.8,6.96,10.71,13.73,21.54,20.26,32.52,3.18,5.34,6.75,10.39,10.41,15.39,10.33,14.09,20.17,28.51,29.84,43.06,4.67,7.03,9.89,13.7,14.75,20.62,3.67,5.22,7.35,10.45,10.7,15.88,5.91,9.6,12.07,19.03,18.49,28.29.75,1.08,1.52,2.15,2.29,3.21,1.68,2.34,3.68,4.22,6.59,4.98,1.08.28,2.09.84,3.09,1.34,1.47.74,2.3,1.9,2.1,3.63-.07.56-.18,1.11-.29,1.78Z"/>
      <path class="cls-3" d="m1631.63,387.74c.9.29,2.08.56,2.24,1.49.37,2.13,1.74,3.09,3.47,4,1.32.7,2.33,1.9,2.92,3.34.99,2.41,2.45,4.66,2.37,7.44-.03.99.69,1.79,1.63,2.1,2.85.94,5.72,1.82,8.6,2.67.9.26,1.86.29,2.77.51,2.93.69,4.18,2.21,4.06,5.18-.05,1.3-.29,2.62-.68,3.86-.62,1.97-1.43,3.87-2.15,5.81-.59,1.58-1.19,3.16-1.74,4.76-.66,1.93-.39,3.7,1.03,5.23.64.69,1.31,1.35,1.91,2.07,1.43,1.71,1.43,3.24-.05,5.07-.94,1.16-1.97,2.27-3.02,3.34-1.06,1.09-2.05,2.21-2.4,3.74-.38,1.63-1.59,2.5-2.97,3.17-1.01.49-2.05.94-3.11,1.31-1.58.55-2.63,1.43-2.38,3.28.21,1.59-.24,2.95-1.33,4.14-.5.55-.9,1.2-1.31,1.83-.85,1.31-1.99,2.27-3.45,2.78-6.25,2.17-11.93,5.47-17.58,8.83-.64.38-1.32.71-1.99,1.06-1.76.92-3.52,1.26-5.33.1-1.05-.67-2.17-.59-3.23-.06-4.52,2.29-9.1,4.49-13.53,6.94-12.99,7.18-25.62,14.96-38.21,22.81-11.15,6.95-22.45,13.68-33.71,20.46-8.69,5.23-17.37,10.46-26.13,15.58-12,7.01-23.74,14.44-35.53,21.8-4.61,2.88-9.18,5.85-13.47,9.21-1.05.82-2.16,1.5-3.44,1.86-2.79.8-5.13,2.26-6.88,4.63-.82,1.11-1.86,1.69-3.27,1.94-1.45.25-2.81.99-4.25,1.39-1.9.53-3.73.45-5.2-1.13-.79-.84-1.67-1.48-2.85-1.68-1.79-.3-2.98-1.54-4.04-2.87-3.26-4.13-6.34-8.38-8.8-13.06-1.84-3.49-3.91-6.85-5.85-10.28-1.04-1.84-2.32-3.38-4.31-4.29-1.28-.59-1.94-1.73-2.21-3.09-.25-1.29-.58-2.57-.69-3.88-.19-2.23-1.26-3.83-2.98-5.19-1.32-1.04-2.54-2.23-3.67-3.48-1.16-1.29-1.88-2.79-1.32-4.65.35-1.16,0-2.24-.72-3.17-1.03-1.33-2.06-2.66-3.17-3.93-1.01-1.15-1.76-2.41-2.3-3.84-.49-1.3-.15-2.77.95-3.53.77-.53,1.65-.89,2.41-1.43.6-.42,1.33-.91,1.56-1.53.62-1.68,1.67-2.91,3.17-3.81,1.16-.7,2-1.68,2.69-2.82.5-.83,1.2-1.47,2.15-1.7,3.18-.79,5.8-2.63,8.37-4.52,4.54-3.34,9.01-6.76,13.56-10.08,8.49-6.21,16.95-12.44,25.52-18.54,9.79-6.97,19.62-13.89,29.52-20.7,11.13-7.67,22.36-15.21,33.56-22.78,5.75-3.89,11.51-7.79,17.32-11.6,5.34-3.5,10.79-6.84,16.13-10.32,7.39-4.82,15.04-9.24,22.14-14.51,3.31-2.46,6.78-4.72,10.22-7,2.52-1.67,5.18-3.06,8.31-3.12,1.37-.03,2.53-.62,3.72-1.18,4.07-1.93,8.16-3.81,12.2-5.82,1.15-.57,2.14-1.49,3.17-2.29,1.48-1.15,2.87-2.4,4.39-3.49.97-.69,2.13-.67,3.24-.23.52.21,1.06.43,1.5.76,2.17,1.68,4.65,2.32,7.34,2.5,1.1.07,2.23.37,3.26.78.65.26,1.21.85,1.7,1.39.66.73.53,1.8-.21,2.5-.39.37-1.08.69-1.13,1.09-.06.44.38,1.05.76,1.41,3.87,3.57,7.2,7.64,10.75,11.5,0,0-.04-.05-.04-.05Z"/>
      <path class="cls-3" d="m11.17,388.94c1.59.47,3.15-.01,4.58-1.08,3.91-2.93,7.85-5.8,11.71-8.79,8.17-6.31,16.35-12.61,24.43-19.03,5.73-4.55,11.3-9.3,16.97-13.94,5.81-4.75,11.63-9.5,17.47-14.21,4.68-3.77,9.39-7.49,14.1-11.22.73-.58,1.48-1.15,2.25-1.69,3.24-2.24,6.34-4.69,9.54-6.97,4.28-3.05,8.33-6.38,12.6-9.45,8.23-5.91,16.34-12,24.54-17.95,5.17-3.75,10.41-7.39,15.63-11.06,1.69-1.19,3.43-2.31,5.44-2.89.98-.29,1.96-.11,2.59.64,3.83,4.62,7.96,8.99,11.22,14.07,1.42,2.21,2.83,4.43,4.36,6.57,1.31,1.82,2.83,3.5,4.18,5.29.55.73,1.05,1.58,1.28,2.45.17.66.08,1.57-.26,2.15-.56.95-1.4,1.75-2.16,2.57-1.35,1.48-1.16,3.11-.4,4.71.4.83,1.06,1.53,1.61,2.29.44.61.91,1.19,1.3,1.82.57.9.48,2.47-.23,3.17-1.2,1.19-2.46,2.32-3.68,3.47-.71.67-1.15,1.47-1.18,2.46-.11,3.11-2.31,4.51-4.74,5.67-.67.32-1.43.48-2.17.6-2.1.33-3.92,1.25-5.58,2.53-10.53,8.18-21.69,15.49-32.42,23.39-7.71,5.67-15.3,11.51-22.94,17.28-6.89,5.2-13.76,10.43-20.66,15.62-1.8,1.36-3.51,2.8-5.17,4.33-8.26,7.66-16.59,15.25-24.89,22.86-.55.51-1.09,1.05-1.71,1.46-3.92,2.62-7.23,5.97-10.86,8.94-5.97,4.88-12.21,9.37-18.96,13.12-1.97,1.09-3.95,2.18-6.2,2.61-1.19.22-2.26-.09-3.03-1.04-.59-.72-1.17-1.49-1.57-2.32-1.15-2.4-2.93-4.34-4.42-6.5-3.95-5.74-9.16-10.44-13.13-16.15-.88-1.26-2.19-2.02-3.51-2.76-1.49-.84-3.1-1.29-4.74-1.74-2.14-.59-2.64-1.55-2.23-3.78.27-1.48.55-2.95.82-4.42.07-.37.03-.78.18-1.11,1.74-3.73,3.47-7.48,5.3-11.16.55-1.1,1.68-1.42,2.9-1.25.19.03.37.07.55.11.37.08.73.17,1.28.3Z"/>
      <g>
        <path class="cls-1" d="m1085.7,637.7c-.28,3.76-.11,8.09-1.21,12.33-.22.86-.2,1.93.12,2.75.63,1.64.73,3.28.64,4.98-.24,4.5-.52,8.98-1.99,13.3-.3.88-.57,1.82-.57,2.73-.05,5.48-1.25,10.81-2.09,16.18-.23,1.48-.59,2.98-.55,4.46.09,2.73-.67,5.18-1.89,7.55-.52,1-1.02,2.01-1.45,3.05-.43,1.03-.96,2.09-1.09,3.17-.29,2.47-1.1,4.74-2.06,6.99-.58,1.38-.94,2.85-1.45,4.26-.77,2.11-1.59,4.21-2.39,6.31-.33.88-.76,1.74-.92,2.65-.37,2.06-1.03,3.99-2.04,5.82-.74,1.35-1.09,2.79-1.01,4.33.09,1.6-.58,2.94-1.55,4.12-2.27,2.78-4.22,5.74-5.71,9.02-.46,1.01-1.29,1.84-1.89,2.78-.71,1.1-1.48,2.18-2.01,3.37-1.54,3.45-3.51,6.6-5.83,9.59-1.25,1.61-2.04,3.58-3.2,5.27-1.17,1.7-2.68,3.16-3.77,4.9-1,1.57-1.7,3.34-2.42,5.07-.59,1.43-1.36,2.71-2.68,3.52-2.43,1.5-4.36,3.54-6.34,5.55-2.9,2.95-5.86,5.83-8.72,8.82-1.68,1.76-3.13,3.75-4.85,5.46-1.59,1.58-3.49,2.85-5.12,4.4-2.45,2.33-4.89,4.64-7.63,6.66-2.25,1.65-4.4,3.51-5.73,6.11-.53,1.03-1.5,1.71-2.59,2.06-4.71,1.52-8.7,4.36-12.9,6.84-3.87,2.29-7.84,4.43-11.78,6.6-5.46,2.99-11.31,5.05-16.88,7.76-.67.33-1.35.74-2.07.86-2.36.38-4.15,1.52-5.58,3.44-.93,1.26-2.31,1.92-3.95,1.75-1.91-.2-3.73.26-5.57.64-2.21.45-4.43.83-6.64,1.26-.92.18-1.87.32-2.72.68-2.1.89-4.25,1.46-6.52,1.67-.74.07-1.5.2-2.2.46-5.35,1.95-11.02,2.25-16.55,3.28-.91.17-1.87,0-2.81.04-3.76.15-7.5.41-10.86,2.41-1,.6-2.15.83-3.26.41-2.88-1.09-5.88-1.1-8.89-1.23-1.31-.06-2.65-.03-3.92-.29-2.05-.42-4.07-.63-6.15-.26-.55.1-1.13.13-1.68.06-7.44-.94-15.03-.53-22.35-2.51-3.35-.25-6.64-1.34-10.07-.56-.66.15-1.5-.13-2.17-.41-1.21-.51-2.34-1.2-3.53-1.75-4.43-2.04-8.97-3.77-13.79-4.72-4.64-.91-8.95-2.81-13.29-4.58-5.38-2.2-10.59-4.86-16.27-6.28-1.51-.38-2.64-1.34-3.81-2.31-3.18-2.64-6.79-4.67-10.19-7.01-3.78-1.32-6.97-3.68-10.19-5.94-3.69-2.58-7.27-5.32-10.83-8.07-1.35-1.05-2.73-1.98-4.36-2.52-1.66-.55-3.03-1.48-4-2.96-1.35-2.07-3.06-3.78-5.03-5.28-.74-.56-1.45-1.22-2.01-1.96-1.49-1.96-3.21-3.67-5.18-5.15-.3-.22-.6-.47-.82-.77-3.24-4.41-7.55-7.84-11.08-11.99-1.21-1.42-2.66-2.67-4.14-3.8-1.69-1.29-3-2.8-3.89-4.73-1.26-2.74-2.88-5.24-4.76-7.63-1.73-2.2-3.26-4.59-4.68-7.01-2.85-4.85-6.47-9.23-8.79-14.41-.3-.68-.69-1.38-1.23-1.87-1.85-1.73-2.96-3.81-3.51-6.28-.24-1.08-.77-2.12-1.27-3.12-3.39-6.72-5.93-13.8-8.78-20.75-1.21-2.95-2.48-5.88-3.84-8.77-.65-1.38-1.07-2.78-1.32-4.28-.61-3.7-1.35-7.36-2.58-10.94-.91-2.65-1.32-5.47-1.92-8.22-.72-3.3-1.33-6.63-2.14-9.92-.9-3.67-1.49-7.36-1.48-11.13.02-5.27-1.16-10.44-1.22-15.7-.01-.94-.3-1.89-.2-2.8.39-3.42.05-6.72-1.05-10-.34-1.01-.19-2.22-.13-3.34.07-1.5.35-2.99.4-4.48.18-4.69.16-9.39,1-14.03.2-1.1.15-2.25.23-3.37.34-4.86.37-9.75,1.88-14.46.28-.88.36-1.85.41-2.78.13-2.27.47-4.48,1.35-6.59.29-.69.46-1.43.61-2.16.81-4.05,1.57-8.11,2.41-12.15.26-1.28.64-2.55,1.08-3.78,2.13-6.02,4.32-12.02,6.45-18.04.44-1.24.64-2.56,1.08-3.79.7-1.94,1.35-3.92,2.3-5.74,3.38-6.5,6.51-13.11,9.59-19.75.39-.85.87-1.67,1.39-2.44,2.93-4.36,5.88-8.71,8.82-13.06.42-.62.84-1.25,1.15-1.93,1.84-3.99,4.5-7.33,7.88-10.12.14-.12.31-.23.41-.38,1.05-1.54,1.94-3.22,3.17-4.6,1.12-1.25,2.52-2.23,3.19-3.87.59-1.43,1.7-2.44,2.87-3.41,1.01-.83,1.9-1.8,2.83-2.73,3.58-3.57,7.14-7.16,10.46-10.98.25-.28.51-.57.83-.76,3.06-1.89,5.43-4.62,8.27-6.77.6-.45,1.26-.84,1.78-1.38,3.3-3.41,7.34-5.83,11.21-8.48,2.32-1.59,4.56-3.31,6.91-4.86,2.19-1.45,4.46-2.78,6.72-4.12,2.9-1.72,6.03-2.99,8.76-5.06,1.31-.99,3.1-1.32,4.59-2.1,2.98-1.56,6.35-2.33,9.05-4.47,2.31-.79,4.56-1.74,6.84-2.58,7.74-2.87,15.48-5.8,23.55-7.63,5.67-1.29,11.41-2.3,17.14-3.32,2.02-.36,4.11-.37,6.17-.56.93-.08,1.91-.04,2.78-.33,1.95-.65,3.77-1.46,5.98-1.17,2.01.26,4.1-.06,6.15-.12.93-.03,1.91.12,2.8-.09,2.6-.61,5.23-.47,7.86-.46,2.82.01,5.64-.01,8.45.03,3.94.06,7.89-.07,11.8.63,1.09.2,2.24.06,3.37.11.75.03,1.55-.04,2.23.22,2.5.95,5.13.99,7.72,1.39,7.05,1.07,14.14,2.01,20.9,4.49,1.05.39,2.15.72,3.26.87,3.57.51,6.89,1.83,10.25,3.03,2.65.95,5.32,1.84,7.97,2.79,1.06.38,2.14.74,3.11,1.29,1.64.94,3.32,1.72,5.16,2.2,1.07.29,2.09.81,3.11,1.28,1.7.79,3.41,1.57,5.06,2.44,2.99,1.58,5.94,3.22,8.9,4.84.99.54,1.93,1.19,2.97,1.6,2.11.84,4.05,1.98,5.9,3.28,3.22,2.26,6.82,3.96,9.71,6.7,3.04,1.52,5.69,3.62,8.31,5.75,3.49,2.85,7.16,5.48,10.38,8.65.53.53,1.06,1.09,1.67,1.51,4.9,3.26,8.6,7.82,12.83,11.8,1.78,1.67,3.44,3.46,5.13,5.23.78.81,1.48,1.69,2.21,2.55,1.46,1.71,2.91,3.44,4.36,5.15.97,1.14,2,2.25,2.9,3.44,2.72,3.6,5.48,7.17,8.06,10.86,3.22,4.61,6.64,9.09,9.08,14.2.48,1.01.98,2.06,1.67,2.93,2.25,2.83,3.59,6.15,5.14,9.36.82,1.69,1.47,3.48,2.43,5.08,2.71,4.54,4.61,9.44,6.66,14.28.66,1.56,1.41,3.07,2.05,4.64.57,1.39,1.09,2.8,1.56,4.22.72,2.13,1.4,4.28,2.06,6.43.33,1.07.68,2.16.86,3.26.37,2.25,1.04,4.38,2.12,6.39.35.66.66,1.37.82,2.09.83,3.66,1.75,7.31,2.36,11,.49,2.97.96,5.91,2.05,8.74.4,1.03.4,2.21.63,3.31.73,3.48.06,7.14,1.41,10.53.25,3.37.5,6.73.75,10.1.03.37.01.76.1,1.12,1.21,4.62.7,9.34.96,14.56Zm-293.21,104.92s.04.04.04.04l-.04-.04Zm-12.36-249.16c-2,.48-3.76,1.42-5.33,2.73-1.55,1.28-3.1,2.57-4.65,3.85l-.34.37c-1.13.67-2.03,1.55-2.65,2.74-.24.46-.64.95-1.09,1.15-3.91,1.71-6.21,5.02-8.5,8.36-.38.38-.77.76-1.15,1.15-2.43,2.13-4.13,4.85-6,7.43-3.76,5.2-6.49,10.98-9.39,16.66-3.17,6.2-5.41,12.79-8.16,19.16-.83,1.91-1.1,3.98-.97,6.07.11,1.79.76,3.31,2.56,4.02,1.05.42,2.12.77,2.86,1.7.86,1.07,2.07,1.55,3.32,2,3.7,1.34,7.34,2.8,10.67,4.96.47.3.99.56,1.53.7,2.38.62,4.59,1.59,6.63,2.99.68.47,2.02.16,2.62-.41,1.54-1.44,2.58-3.23,3.49-5.07,1.84-3.7,3.56-7.45,5.34-11.17,2.27-4.74,4.44-9.53,6.85-14.2,2.62-5.05,6.01-9.54,10.75-12.83,2.46-1.71,5-3.34,7.65-4.75,3.64-1.95,7.37-3.72,11.13-5.44,2.56-1.18,5.13-2.27,7.29-4.18.66-.58,1.66-1.03,2.53-1.07,3.05-.14,5.9-1.1,8.8-1.85,3.83-.99,7.67-1.79,11.66-1.69,2.63.06,5.26-.03,7.88-.12,1.12-.04,2.25-.15,3.34-.41,2.39-.56,4.63-3.47,4.19-5.94-.35-1.94-.12-3.73.26-5.55.43-2.05.43-4.1.15-6.16-.33-2.41-.83-4.8-.34-7.26.14-.7-.08-1.5-.28-2.22-.44-1.66-.51-3.31-.23-5.01.11-.68-.02-1.59-.41-2.13-1.1-1.53-1.96-3.18-2.75-4.88-.32-.69-.97-1.15-1.74-1.3-.73-.14-1.48-.3-2.22-.3-5.44-.02-10.89-.03-16.33.03-1.11.01-2.33.08-3.31.53-3.73,1.7-7.98,2.28-11.19,5.14-.7.62-1.73.82-2.67.59-1.88-.46-3.67-.45-5.49.32-.45.19-1.1-.04-1.66-.11-.98-.14-1.86.09-2.68.6-.8.5-1.54,1.09-2.36,1.52-1.18.62-2.41.99-3.79.53-.48-.16-1.18-.13-1.62.11-1.3.73-2.54,1.58-3.76,2.45-.24.18-.26.67-.38,1.02-.18.51-.21,1.22-.57,1.5-.72.57-1.6.96-2.45,1.31-.24.1-.7-.14-.97-.34-1.38-1.03-1.38-1.06-2.2-.42-1.33,1.04-2.64,2.1-3.96,3.15l.06-.06Zm189.35,189.46c1.62-1.03,3.25-1.88,5.21-.74.46.27,1.1.21,1.63.39,1.08.36,1.8-.02,2.26-1.01.71-1.53,1.71-2.38,3.57-1.85.65.18,1.46-.13,2.19-.27.51-.1,1.05-.83.91-1.23-.12-.33-.27-.77-.54-.92-2.34-1.33-4.75-2.17-7.52-1.38-1.8.51-3.71.66-5.48,1.24-2.69.88-5.48,1.28-8.22,1.9-1.31.3-2.6.37-3.89-.03-2.74-.84-5.58-.54-8.38-.77-.7-.06-1.29.87-1.07,1.65.21.72.63,1.4.69,2.12.05.71-.2,1.47-.41,2.17-.18.61-1.47,1.01-1.94.6-1.22-1.07-2.83-1.94-2.1-4.08.39-1.14.03-2.21-.75-3.14-.63-.74-1.95-.9-2.51-.2-1.97,2.47-4.12,4.8-5.08,7.97-.92,3.05-2.08,6.03-3.29,8.98-1.93,4.7-4.47,9.01-7.83,12.91-2.22,2.57-4.87,4.67-7.07,7.23,0,0,.05-.04.05-.04-2.75,1.96-5.47,3.97-8.27,5.85-1.47.99-2.64,2-2.8,3.94-.05.64-.74,1.26-1.21,1.83-.63.76-1.35.89-2.47.27-.7-.38-1.35-.67-2.1-.35-.86.37-1.68.84-2.53,1.22-3.24,1.48-6.43,3.11-9.76,4.36-3.15,1.18-6.43,2.09-9.71,2.89-3.46.84-7.08,1.11-10.46,2.16-3.57,1.12-7.09.22-10.61.5-1.12.09-2.26.02-3.38.11-3.22.25-6.39,0-9.46-1.02-1.29-.43-2.04-.13-2.8,1.01-.58.87-2.06.54-2.14-.5-.13-1.64-1.23-2.2-2.34-2.87-.54-.32-1.05-.32-1.37.32-.38.78-.95,1.16-1.78.75-1.18-.59-2.3-1.26-2.89-2.55-.4-.89-1.13-1.49-2.02-1.86-4.68-1.96-9.41-3.78-14.37-4.93-.54-.13-1.14-.27-1.66-.16-.5.1-1.11.39-1.38.8-.63.92-1.09,1.96-1.61,2.95-.14-.32-.26-.66-.44-.96-.04-.06-.43-.02-.44.03-.2.79.48.72.92.89.13,1.37.38,2.52,2.11,2.82,1.23.21,1.29.55.89,1.46-.37.85-.75,1.69-1.12,2.54-.22.51-.28,1.21-.67,1.5-2.06,1.55-3.58,3.88-6.39,4.39-1.67.3-3.25,1.06-4.5,2.21-2,1.83-4.22,2.24-6.75,1.51-.17-.05-.37.04-.55.04-.66.01-1.3.99-1.03,1.67.21.52.51,1,.76,1.5.57,1.15-.07,2.23-1.49,2.34-.9.07-1.84-.17-2.73-.38-.83-.19-1.1-.89-.74-1.74.14-.34.49-.62.54-.96.04-.28-.18-.63-.36-.89-.07-.1-.37-.14-.52-.09-2.44.79-4.31,2.17-4.94,4.84-.26,1.08-.63,2.14-.96,3.2-.21.7.08,1.13.86.96,1.34-.3,2.6-.05,3.89.19l-.03-.06c-.83,1.24-1.71,2.46-2.49,3.74-.41.67-.39,1.46.04,2.14.55.87,1.22.51,1.89.11.51-.31,1.12-.42,1.54.04.83.9,1.76,1.3,3,1.09.53-.09,1.12.02,1.66.14,1.52.32,2.27,2.27,1.4,3.6-.2.31-.48.58-.74.84-.91.94-1.7,1.13-2.11-.12-.52-1.6-1.64-1.9-3.1-1.59-.36.08-.76.14-1.06.33-.28.18-.48.51-.63.81-.06.12.03.42.15.51,1.06.76,2.13,1.53,3.23,2.24,1.01.64,2.12.71,3.24.33.53-.18,1.03-.48,1.57-.61.31-.07.8-.01.98.19.14.16.06.74-.13.94-1.27,1.39-2.61,2.67-4.47,3.3-2.22.75-3.39,2.25-2.97,4.73.1.55.15,1.14.07,1.68-.18,1.23.32,2.05,1.11,2.99,1.36,1.6,3.09,2.72,4.62,4.09.66.59,1.85.47,2.61-.14,1.3-1.06,2.6-2.14,3.91-3.18.38-.3,1.25-.09,1.4.46.28,1.09.76,1.68,1.94,1.33,4.04-1.19,8.23-.22,12.31-.81.28-.04.77.27.89.53.43,1,1.16,1.35,2.19,1.41.22.01.65.56.6.76-.41,1.52.31,2.48,1.41,3.38.57.46,1,1.11,1.46,1.7.1.13.18.46.11.52-.25.22-.66.59-.84.51-2-.88-3.96-.91-5.97-.03-.32.14-.74.03-1.12.04-.19,0-.38-.04-.56-.02-.82.08-1.35.55-1.03.91.24.27.43.66.73.78,8.77,3.39,17.75,6.06,27.03,7.7,1.48.26,2.95.36,4.47.02,1.07-.24,2.23-.18,3.34-.15,1.71.05,3.34-.05,4.93-.85.59-.3,1.44-.1,2.18-.12.22.26.44.52.67.78.8.89,1.7,1.05,2.71.36,1.57.66,3.18,1.09,4.91,1.01,1.5-.07,3-.12,4.5-.05,3.09.13,5.95-.55,8.62-2.09.38,0,.76,0,1.14,0,.88.35,1.82.7,2.72.28,1.92-.89,3.97-1.03,6.01-1.35,3.52-.55,7.03-1.18,10.5-1.96,2.74-.61,5.4-1.6,8.14-2.2,4.8-1.06,9.1-3.49,13.8-4.82.53-.15,1.04-.44,1.51-.74,2.06-1.31,4.11-2.61,6.56-3.13.69-.15,1.36-.65,1.93-1.12,1.33-1.09,2.87-1.71,4.42-2.4,4.32-1.92,8.01-4.84,11.66-7.79.29-.23.5-.56.74-.85,1.47-1.82,2.69-3.69,1.28-6.12-.09-.16-.12-.36-.15-.54-.65-3.56,1.36-6.05,5.23-6.42.29-.03.75.23.9.49.15.27.14.85-.04,1.03-.94.9-1.99,1.69-2.92,2.59-.19.18-.2.75-.06,1.02.33.67.79,1.28,1.22,1.89.51.71,1.36.97,1.95.56,2.45-1.7,5.12-3.2,6.36-6.15.32-.75.84-1.22,1.65-1.34,1.17-.17,2.04-.89,2.92-1.6,1.02-.82,2.01-1.72,3.12-2.4,2.77-1.69,4.81-4.18,7.16-6.32.67-.61,1.22-1.47,1.54-2.32.75-1.99,2.55-3.31,3.31-5.19.85-2.1,2.62-3.09,4.16-4.41.57-.48,1.09-1.05,1.51-1.66,3.67-5.24,6.83-10.8,9.3-16.69,1.81-4.31,3.63-8.66,4.26-13.38.15-1.1.62-2.16.98-3.23,1.5-4.44,2.98-8.9,4.55-13.32.71-1.99,1.13-3.97.73-6.06-.15-.79-.63-1.38-1.37-1.65-.88-.31-1.8-.49-2.69-.76-.15-.05-.32-.24-.37-.4-.12-.42.09-.71.52-.86.53-.18,1.1-.3,1.59-.55,1.03-.53,1.48-1.79,1.1-2.89-.64-1.85-2.74-2.99-4.49-2.44-1.82.57-3.45,1.46-4.78,2.86-.72.76-.79,1.57-.34,2.57.41.92.23,1.22-.36,1.31-.93.14-1.86.22-2.79.38-1.28.23-1.92,1.06-2.02,2.33-.03.37-.02.76-.09,1.12-.17.83-.75,1.48-1.5,1.4-2.18-.23-4.04.46-5.78,1.7-.71.5-.94,1.1-.76,1.92.08.37.16.74.15,1.11-.04,1.41-1.26,2.34-2.72,2.11-1.54-.25-2.23-.98-2.42-2.56-.04-.37,0-.75-.04-1.12-.04-.46-.3-.68-.72-.58-.17.04-.32.19-.48.28-.66.34-1.29.8-1.99.97-.7.17-1.51.2-2.19,0-.79-.23-.87-1.13-1.14-1.82-.34-.86-.67-.98-1.11-.3-.9,1.42-2.35,1.79-3.76,2.26-.19.06-.78-.35-.77-.53.05-1.7-1.19-3.38-.47-4.96.59-1.31,1.82-2.33,2.78-3.47.36-.43.75-.84,1.12-1.26l-.05.05Zm16.35,3.85c.3-.21.72-.36.86-.65.14-.28.13-.79-.04-1.05-.6-.9-1.53-1.01-2.47-.69-.24.08-.54.64-.46.85.35.94,1.06,1.51,2.11,1.53Zm-198.93,88.21c.96-.49,1.61-1.87,1.22-2.63-.05-.1-.34-.19-.46-.14-1.14.51-1.69,1.69-1.21,2.58.06.11.3.13.45.19Zm12.15-39.77c0-.4.03-.58,0-.75-.08-.32-.21-.62-.31-.93-.19.27-.48.52-.55.83-.17.68-.25,1.38-.32,2.07,0,.08.24.26.38.28.14.01.39-.09.44-.2.18-.49.3-1,.38-1.3Zm179.38-63.2c-.3.14-.61.25-.88.43-.1.07-.13.33-.09.47.13.44.77.64,1.31.34.24-.13.33-.52.49-.79-.28-.15-.56-.31-.84-.46Zm-170.14,56.3c-.19-.59-.89-.9-1.21-.5-.17.22-.26.7-.13.91.14.23.58.38.87.37.41-.02.56-.37.47-.78Zm142.19-56.34c-.14-.42-.42-.61-.85-.51-.44.1-.68.44-.46.81.15.25.54.51.83.51.43,0,.59-.37.48-.81Zm-135.38,117.99c.24.14.49.29.73.43.06-.14.21-.37.18-.39-.22-.17-.48-.31-.72-.45-.06.14-.13.27-.19.41Zm133.19-123.93c-.28.01-.57,0-.84.06-.04,0-.04.27-.06.41.28-.01.57,0,.85-.05.04,0,.04-.27.05-.42Zm-145.23,68.01l.11.39.23-.29-.34-.11Zm8.9-9.06l.07-.42-.38.15.31.26Z"/>
        <path class="cls-1" d="m933.43,733.64c.08-.17.12-.39.25-.5,1.12-.96,2.44-1.75,3.32-2.89.76-1,.98-2.4,1.53-3.58.11-.24.62-.33.96-.41.11-.03.38.17.41.3.21.9.3,1.8.94,2.58,1.15,1.38.91,2.73-.32,3.99-.26.27-.56.49-.86.72-.88.67-1.02,1.5-.59,2.47.62,1.39.41,2.54-.92,3.41-.31.2-.59.46-.85.73-1.05,1.05-1.07,2.84.01,4,.23.24.67.44.99.41.91-.08,1.81-.34,2.72-.4.23-.02.6.42.71.72.12.32.09.75-.01,1.09-.27.89-.86,1.76-.87,2.65-.03,2.24-1.07,3.89-2.58,5.39-.91.92-1.8,1.24-2.95.47-.3-.2-.7-.35-1.05-.34-.34,0-.84.15-.98.4-.74,1.28-1.04,2.82-2.2,3.84-.2.18-.8.24-.97.08-.53-.51-.95-1.14-1.41-1.72-.74-.92-1.64-1.52-2.88-1.42-1.32.1-2.1-.57-2.54-1.74,1.05-.38,2.08-.91,3.16-1.08,1.06-.17,2.18.04,3.28.05.14,0,.3-.2.43-.33.51-.53.32-2.3-.31-2.57-.68-.28-1.39-.55-2.11-.68-2.67-.49-3.83.32-4.3,2.97-.1.55-.08,1.11-.11,1.67-.85.69-1.67,1.41-2.56,2.03-.22.16-.74.09-1-.07-.27-.17-.51-.56-.54-.88-.06-.53-.06-1.12.13-1.6.51-1.36,1.13-2.68,1.71-4.02,0,0-.04.03-.04.03l1.19-1.19s-.04.05-.04.05c1.13-.38,1.91-1.1,2.26-2.26l-.04.02c.48-.16.99-.26,1.43-.49.85-.44.75-1-.28-1.81l.04.04c-.01-.9-.05-1.8-.04-2.7.02-1.48-.27-2.86-1.12-4.1,0,0,.05.06.05.06-.4-.4-.8-.8-1.21-1.21l.05.08c.76-.5,1.59-.63,2.48-.43.68.15,1.36.28,2.04.42l-.04-.04c.51,1.22,1.06,2.49.72,3.81-.66,2.55.64,4.33,2.13,6.09.41.48,1.06.48,1.4-.06.3-.47.58-.96.85-1.46.29-.53.35-1.09-.08-1.56-.38-.41-.84-.75-1.26-1.12-.61-.53-.91-1.21-.85-2,.07-.93.13-1.88.4-2.76.29-.92.4-1.77.28-2.74-.11-.92.1-.97,1.57-.66.18.04.35.12.53.19,0,0-.03.02-.03.02Z"/>
        <path class="cls-1" d="m953.69,750.51c-.19-.53-.3-1.1-.59-1.56-.15-.24-.72-.49-.91-.38-.79.46-1.51,1.04-2.25,1.58-.58.43-.69.87-.38,1.41.46.8,1,1.56,1.34,2.4.33.81-.8,2.1-1.55,1.84-1.23-.43-2.45-.9-3.63-1.44-.28-.13-.57-.6-.57-.91.02-1.85.09-3.68-.33-5.52-.12-.53.64-1.27,1-1.92,0,0,.03.03.03.03-.33-.17-.7-.29-.99-.51-.47-.36-.71-.93-.46-1.46,1.5-3.23,2.09-3.8,5.73-5.68.1-.05.35.08.46.19.11.12.22.36.16.49-.49,1.2-1.01,2.38-1.53,3.57-.15.03-.32.03-.45.09-.1.05-.16.18-.24.28.23-.13.46-.25.69-.38.34-.14.73-.22,1.01-.44,1.89-1.48,3.9-2.74,6.2-3.53.41-.14.72-.77.91-1.24.07-.17-.32-.61-.59-.8-.36-.26-.59-.56-.35-.89.19-.26.56-.46.89-.53.34-.07.75-.02,1.08.1.89.32,1.74.48,2.67.09,1.35-.58,2.75-1.05,4.11-1.61,1.08-.45,2.17-.3,3.26-.14l-.05-.05c-.45.59-.83,1.28-1.37,1.76-2.25,1.99-3.17,3.43-3.76,6.3-.43,2.08-1.27,3.84-3.07,5.16-1.5,1.1-2.8,2.47-4.2,3.73,0,0,.04-.04.04-.04-.75.02-1.49.05-2.24.07l-.07-.07Z"/>
        <path class="cls-1" d="m803.82,769.72c-1.27-.72-2.57-1.41-3.8-2.19-.18-.11-.1-.68-.07-1.03.01-.14.21-.32.37-.38.34-.12.71-.27,1.05-.23.73.09,1.46.26,2.18.45,1.53.41,2.96.23,4.23-.73,1.45-1.09,2.99-1.32,4.73-.83,1.07.3,2.19.38,3.29.58.67.12,1.2.62,1.05,1.07-.17.5-.39,1.11-.79,1.37-.59.39-1.36.72-2.05.72-2.45,0-4.8.23-7,1.45-1.06.58-2.17.07-3.23-.3l.04.04Z"/>
        <path class="cls-1" d="m969.49,733.66c1.66.8,3.28-.16,4.92-.09.14,0,.32.18.41.32.08.14.13.36.08.51-.37,1.12-1.22,1.86-2.16,2.45-1.03.65-1.59,1.49-1.7,2.7-.05.54-.29,1.07-.5,1.58-.43,1.01-1.88,1.32-2.86.6-.3-.22-.56-.5-.79-.78-.36-.45-.6-1.01-.28-1.53.38-.63.88-1.19,1.37-1.74,1.02-1.18,1.46-2.57,1.56-4.09,0,0-.06.06-.06.06Z"/>
        <path class="cls-1" d="m798.12,776.45c.74.56,1.52,1.08,2.21,1.69.25.22.52.71.44.97-.6,1.94-1.26,3.87-1.97,5.78-.11.31-.5.53-.79.75-.13.1-.41.17-.51.1-.27-.18-.69-.47-.67-.68.11-1.12.09-2.14-.39-3.24-.96-2.19-.21-3.99,1.73-5.32l-.05-.05Z"/>
        <path class="cls-1" d="m944.68,725.7c.51,1.18,1.22,2.33,1.48,3.56.42,2,.93,3.93,1.77,5.8.16.36-.12,1.09-.42,1.46-.6.74-2.1.48-2.32-.36-.62-2.3-1.25-4.61-1.8-6.93-.33-1.41.47-2.48,1.33-3.47l-.05-.06Z"/>
        <path class="cls-1" d="m861.3,803.56c-1.14-.38-2.28-.77-3.41-1.15-.24-2.36-1.06-4.67-.65-7.11.13-.79-.5-1.32-.95-1.91-.5-.65-.41-1.17.07-1.35.57-.21,1.1-.08,1.5.32.38.38.79.84.92,1.33.23.88.39,1.82.34,2.72-.09,1.68.59,2.78,2.03,3.6.69.39.8,1.2.64,1.97-.11.54-.32,1.06-.48,1.58Z"/>
        <path class="cls-1" d="m919.93,735.91c-2.23.35-3.47-.95-4.37-2.72-.11-.22.13-.66.28-.96.06-.11.35-.2.49-.16.53.16,1.08.31,1.54.59,1.34.82,2.8,1,4.32.99l-.05-.05c.39.77.78,1.55,1.17,2.32,0,0-.05-.08-.05-.08.4.4.8.8,1.21,1.21,0,0-.05-.06-.05-.06-.28.7-.66,1.34-1.47,1.47-1.01.16-1.78-.33-2.33-1.13-.31-.45-.49-.97-.73-1.47,0,0,.04.04.04.04Z"/>
        <path class="cls-1" d="m789.13,756.18c.64-.3,1.26-.67,1.94-.87.77-.23,1.23-.68,1.47-1.41l-.04.04c2.13-.88,4.06-.8,5.64,1.11l.03-.02c-1.12,1.32-1.85,3.03-3.9,3.36-.63.1-1.17.75-1.76,1.15l.03.03c-.47-1.82-1.88-2.7-3.43-3.44,0,0,.03.06.03.06Z"/>
        <path class="cls-1" d="m851.1,784.39c.4.38.84.72,1.18,1.14.74.94.92,2.03.41,3.1-1.13,2.38-2.84,4.24-5.23,5.42-.16.08-.35.08-.53.14-.41.14-1.31-.25-1.35-.64-.03-.34-.06-.78.12-1.03.65-.88,1.38-1.7,2.08-2.55l-.06.05c.35-.08.7-.15,1.05-.25,1.14-.31,1.92-1.03,2.11-2.2.17-1.06.19-2.15.27-3.22l-.06.04Z"/>
        <path class="cls-1" d="m934.59,725.71c-1.16.52-2.31,1.01-3.64.91-1.26-.09-2.21-1.32-1.96-2.71.04-.24.57-.62.75-.56,1.71.57,3.37,1.25,4.8,2.4l.04-.04Z"/>
        <path class="cls-1" d="m969.68,745.38c.02.17.11.37.06.52-.48,1.25-1.27,2.25-2.45,2.92-.16.09-.35.12-.52.19-.47.2-1.4-.13-1.41-.54-.01-.35,0-.79.2-1.04.94-1.2,2.19-1.96,3.68-2.3.12-.03.29.17.44.26Z"/>
        <path class="cls-1" d="m944.73,725.76c2.09-2.08,2.85-2.3,4.81-1.28.27.14.59.69.51.86-.23.46-.61.9-1.03,1.18-.25.16-.72.06-1.07-.02-1.09-.24-2.17-.53-3.26-.79,0,0,.05.06.05.06Z"/>
        <path class="cls-1" d="m918.67,727.12c-.07,1.67-1.38,2.82-2.89,2.44-.22-.05-.53-.66-.44-.86.45-1.09,1.43-1.63,2.47-2.04.42-.16.73.04.86.46Z"/>
        <path class="cls-1" d="m920.87,766.67c-.53.07-1-.56-.85-1.1.2-.73.59-1.3,1.26-1.67.63-.35,1.53-.08,1.88.55.35.63.02,1.42-.74,1.78-.32.15-.67.26-1.02.36-.17.05-.35.05-.53.08Z"/>
        <path class="cls-1" d="m847.79,788.89c-.54-1.18-1.24-2.34-.73-3.7.11-.29.46-.63.75-.68.28-.04.76.18.89.43.24.46.43,1.04.39,1.55-.07.96-.67,1.7-1.36,2.34,0,0,.06.06.06.06Z"/>
        <path class="cls-1" d="m939.13,721.97c-.27.2-.54.55-.82.57-1.1.06-2.16-.18-2.91-1.06-.18-.2-.13-.64-.11-.96,0-.1.29-.28.4-.26,1.04.23,2.08.45,3.09.79.2.06.24.6.35.91Z"/>
        <path class="cls-1" d="m808.29,746.04c.69-.28,1.37-.6,2.08-.82.57-.17,1.1.43.96,1.03-.12.55-.26,1.1-.43,1.63-.21.66-.77,1.09-1.21.85-.45-.25-.93-.63-1.14-1.07-.23-.48-.16-1.09-.22-1.65l-.03.03Z"/>
        <path class="cls-1" d="m914.07,749.65c-.21.48-.46,1.19-.85,1.81-.1.16-.76.2-.93.05-.6-.55-.7-1.3-.37-2.03.31-.7.82-1.21,1.66-1.29.52-.05.79.55.49,1.47Z"/>
        <path class="cls-1" d="m802.49,776.48c-.87-.06-1.46-.71-1.29-1.47.13-.6.54-.96,1.15-1.03.74-.08,1.3.61,1.27,1.5-.02.59-.53,1.04-1.13,1Z"/>
        <path class="cls-1" d="m951.18,762.36c-.36-.18-.63-.23-.65-.34-.06-.31-.16-.73,0-.94.43-.62,1.11-.92,1.86-.86.31.02.74.24.86.49.1.22-.06.77-.27.9-.6.35-1.28.55-1.78.75Z"/>
        <path class="cls-1" d="m905.87,789.44c0,.18,0,.37,0,.55-.03.56-.11,1.12-.7,1.37-.15.06-.38.06-.53,0-.66-.31-.9-1-.64-1.89.1-.35.23-.73.47-.99.22-.24.64-.49.89-.43.23.06.38.53.51.84.07.16.01.37.01.55h0Z"/>
        <path class="cls-1" d="m933.46,770.8c-1.67-1.04-2.31-2.71-2.71-4.51-.09-.42.13-.69.55-.7.16,0,.37.09.48.21,1.23,1.46,1.57,3.21,1.64,5.05l.05-.05Z"/>
        <path class="cls-1" d="m957.1,751.69c.23.48.6.94.65,1.43.05.49-.16,1.03-.36,1.5-.21.49-.93.72-1.39.53-.45-.18-.75-.95-.46-1.38.5-.73,1.06-1.42,1.59-2.13l-.04.04Z"/>
        <path class="cls-1" d="m860.13,790.03c.73-.21,1.47-.33,2.11.19.72.58,1.4,1.25,1.45,2.25.02.3-.21.76-.47.89-.25.13-.84.06-.98-.14-.74-1.04-1.38-2.16-2.05-3.24,0,0-.06.05-.06.05Z"/>
        <path class="cls-1" d="m896.58,774.41c.35-.84.69-1.69,1.07-2.52.03-.06.34-.08.44-.01.13.09.22.29.25.46.13.94-.04,1.85-.64,2.59-.19.23-.59.29-.9.43-.07-.32-.14-.63-.21-.95Z"/>
        <path class="cls-1" d="m928.77,731.68c-.06.78-.47,1.27-1.28,1.36-.28.03-.73-.16-.86-.39-.13-.22-.06-.76.12-.91.38-.32.88-.54,1.36-.65.17-.04.44.38.66.59Z"/>
        <path class="cls-1" d="m927.08,762.49c.55-.12,1.07.2,1.22.74.15.53-.3,1.1-.85,1.09-.55-.02-1.06-.51-.96-1.06.05-.28.39-.51.59-.77Z"/>
        <path class="cls-1" d="m923.77,770.56c-.71.02-1.27-.37-1.16-.82.14-.61.62-.88,1.18-.95.34-.04.72.06,1.06.16.15.04.36.28.34.39-.06.33-.2.66-.37.95-.08.12-.32.16-.5.2-.18.04-.36.04-.55.06Z"/>
        <path class="cls-1" d="m976.31,738.15c.33-1.21.44-2.54,1.59-3.32.19-.13.64.06.95.18.08.03.12.36.07.51-.45,1.3-1.62,1.88-2.65,2.6l.04.04Z"/>
        <path class="cls-1" d="m814.72,750.87c.55.13.86.7.69,1.28-.16.56-.86.9-1.29.55-.25-.2-.45-.59-.48-.91-.05-.6.54-1.05,1.07-.92Z"/>
        <path class="cls-1" d="m909.8,758.4c-.55.06-1.1.16-1.65.16-.72,0-1.2-.46-1.08-.97.04-.17.13-.37.26-.47.48-.4,1.06-.43,1.5-.02.39.36.62.89.93,1.35l.05-.04Z"/>
        <path class="cls-1" d="m896.17,797.5c-.33-.31-.77-.6-1.02-1-.11-.18.14-.61.3-.89.06-.1.38-.16.48-.09.41.28.8.6,1.16.95.09.09.1.42.02.48-.24.2-.55.33-.95.55Z"/>
        <path class="cls-1" d="m820.72,730.22c-.71.14-1.42.4-2.13-.04-.44-.27-.57-1.14-.13-1.42.27-.17.7-.29.99-.19.78.26.97,1.02,1.23,1.7l.04-.04Z"/>
        <path class="cls-1" d="m908.61,744.85c-.2.89-.43,1.79-1.28,2.29-.23.14-.76.11-.93-.06-.17-.18-.19-.69-.06-.94.47-.91,1.41-1.03,2.3-1.22l-.03-.07Z"/>
        <path class="cls-1" d="m853.89,752.92c.19-.3.36-.62.59-.87.07-.08.38-.05.51.04.62.44.52,1.49-.17,1.83-.14.07-.45.04-.51-.06-.18-.28-.29-.62-.42-.94Z"/>
        <path class="cls-1" d="m901.92,749.56c-.15-.06-.36-.08-.44-.2-.34-.52-.15-1,.22-1.43.1-.12.38-.27.43-.23.23.19.57.43.58.67.03.53-.17,1.03-.79,1.18Z"/>
        <path class="cls-1" d="m803.63,750.91c-.07.5-.82.91-1.2.59-.2-.17-.32-.66-.22-.88.1-.23.56-.46.8-.4.24.05.41.45.62.7Z"/>
        <path class="cls-1" d="m849.95,796.63c.06.64-.26,1.14-.76,1.16-.51.02-.92-.48-.88-1.06.04-.58.62-1.11,1.04-.88.26.15.41.51.6.78Z"/>
        <path class="cls-1" d="m922.14,759.54c-.28.47-.5.99-.87,1.37-.13.14-.64-.05-.95-.16-.08-.03-.13-.34-.09-.49.04-.16.18-.38.32-.41.54-.13,1.09-.19,1.64-.28l-.04-.04Z"/>
        <path class="cls-1" d="m821.57,778.67c-.21.26-.38.65-.65.74-.25.08-.61-.15-.92-.25.22-.26.42-.54.68-.75.11-.09.36-.1.51-.05.14.04.26.2.38.31Z"/>
        <path class="cls-1" d="m860.13,787.71c0,.77,0,1.54,0,2.31,0,0,.06-.05.06-.05-1.6-.56-2.3-1.72-2.26-3.37l-.04.04c.76.37,1.52.74,2.28,1.12l-.04-.05Z"/>
        <path class="cls-1" d="m828.59,792.27c.51-.14,1.02-.35,1.54-.38.22-.01.47.35.66.57.03.03-.14.3-.27.38-.14.09-.37.16-.5.11-.48-.21-.94-.48-1.4-.73l-.04.05Z"/>
        <path class="cls-1" d="m985.69,730.79c.12.41-.03.75-.43.71-.23-.02-.45-.37-.63-.61-.04-.05.12-.32.24-.4.36-.22.64-.1.82.29Z"/>
        <path class="cls-1" d="m904.16,743.79c.2-.69.42-1.39,1.12-1.74.39-.2.72-.07.85.35.05.14-.02.44-.12.49-.62.31-1.26.58-1.9.86l.04.04Z"/>
        <path class="cls-1" d="m908.64,744.91c.49-.23.96-.54,1.47-.64.22-.04.56.32.79.56.08.09.05.43-.04.5-.26.19-.66.48-.88.39-.5-.19-.92-.57-1.38-.87,0,0,.03.07.03.07Z"/>
        <path class="cls-1" d="m825.43,772.14c-.25.19-.5.37-.74.56-.18-.25-.52-.53-.48-.73.05-.23.44-.39.69-.57.18.25.36.5.54.75Z"/>
        <path class="cls-1" d="m905.97,762.71c-.1.15-.18.42-.3.43-.49.05-.65-.22-.38-.68.07-.12.3-.16.46-.23.07.16.15.32.22.48Z"/>
        <path class="cls-1" d="m892.82,765.28c.14.06.28.13.41.19-.15.24-.28.49-.46.71-.02.03-.26-.11-.4-.18.15-.24.3-.48.44-.72Z"/>
        <path class="cls-1" d="m919.92,741.41c.25.15.49.31.74.47-.09.11-.23.34-.26.32-.26-.12-.5-.29-.74-.44.09-.12.18-.23.26-.35Z"/>
        <path class="cls-1" d="m925.89,758.58c-.15.06-.35.2-.45.15-.11-.05-.13-.29-.18-.44.15-.06.35-.2.45-.15.11.05.13.29.18.44Z"/>
        <path class="cls-1" d="m820.87,745.31c-.01.42-.26.72-.63.59-.2-.07-.32-.51-.39-.8-.03-.1.19-.26.29-.39.24.2.48.4.72.6Z"/>
        <path class="cls-1" d="m865.82,795.64c.49-.25.97-.52,1.47-.72.12-.05.4.06.48.18.23.38.08.77-.37.78-.54.01-1.08-.18-1.62-.28l.05.04Z"/>
        <path class="cls-1" d="m951.53,733.3c.13.06.33.09.39.19.06.1.03.34-.06.41-.34.27-.59.15-.6-.29,0-.1.18-.21.27-.31Z"/>
        <path class="cls-1" d="m862.27,780.3c.1-.12.19-.33.3-.34.4-.05.6.17.53.56-.02.13-.17.34-.28.35-.4.04-.59-.18-.55-.57Z"/>
        <path class="cls-1" d="m988.97,729.2c-.13.05-.26.1-.39.15-.05-.13-.16-.3-.12-.38.05-.09.24-.11.38-.16.05.13.09.26.14.39Z"/>
        <path class="cls-1" d="m922.19,733.66c.14-.32.25-.66.42-.96.07-.12.32-.26.44-.22.41.13.46.46.06.73-.28.2-.65.27-.98.39,0,0,.05.05.05.05Z"/>
        <path class="cls-1" d="m906.8,753.07c-.03.17,0,.4-.11.51-.38.38-.66.28-.68-.24,0-.13.18-.34.33-.39.12-.05.31.08.47.13Z"/>
        <path class="cls-1" d="m867.75,800.78c-.1.09-.19.18-.29.27-.07-.11-.22-.23-.2-.33,0-.1.17-.18.27-.27.07.11.15.22.22.33Z"/>
        <path class="cls-1" d="m969.55,682.88c-.4-.3-1.02-.44-.87-1.16.15.05.38.06.43.16.16.33.26.7.38,1.05,0,0,.05-.05.05-.05Z"/>
        <polygon class="cls-1" points="895.08 789.13 895.37 788.83 895.48 789.2 895.08 789.13"/>
        <path class="cls-1" d="m922.48,786.58c.05.13.16.29.12.37-.05.09-.31.19-.35.15-.29-.31-.2-.49.22-.52Z"/>
        <path class="cls-1" d="m857.59,752.29c.12.06.24.12.36.17-.06.12-.1.3-.19.34-.08.03-.23-.1-.35-.15.06-.12.13-.24.19-.36Z"/>
        <path class="cls-1" d="m922.49,718.37c-.13-.06-.25-.12-.38-.18.06-.13.1-.32.2-.36.09-.03.24.1.37.16-.06.13-.13.25-.19.38Z"/>
        <path class="cls-1" d="m857.93,786.61c-.35-.32-.94-.46-.84-1.12.14.05.34.07.4.17.16.31.27.65.4.98,0,0,.04-.04.04-.04Z"/>
        <path class="cls-1" d="m962.9,757.36c-.06-.14-.12-.28-.17-.43.14-.05.32-.19.41-.14.1.05.13.26.19.41-.14.05-.29.11-.43.16Z"/>
        <path class="cls-1" d="m912.34,730.69l-.35-.17c.06-.12.1-.3.19-.34.08-.03.23.09.35.15-.06.12-.12.24-.19.36Z"/>
        <path class="cls-1" d="m921.05,749.41c-.31-.42-.69-.93-.25-1.37.45-.45.95-.06,1.36.26,0,0,.04-.05.04-.05-.4.4-.79.79-1.19,1.19l.04-.03Z"/>
        <path class="cls-1" d="m851.16,784.35c-.25-.38-.73-.73-.19-1.23.01-.01.3.18.3.27-.02.33-.11.66-.17,1,0,0,.06-.04.06-.04Z"/>
        <polygon class="cls-1" points="885.38 767.74 884.94 767.79 885.13 767.4 885.38 767.74"/>
        <path class="cls-1" d="m938.18,758.03c-.07.15-.11.37-.23.41-.11.04-.29-.1-.44-.15.07-.15.11-.37.22-.42.11-.04.29.1.44.16Z"/>
        <path class="cls-1" d="m910.55,768.97c0,.12.05.33-.01.36-.1.06-.36.07-.38.02-.17-.36-.03-.5.39-.38Z"/>
        <path class="cls-1" d="m924.42,746.03q-.58-1.65,1.15-2.24s-.04-.04-.04-.04c-.38.77-.77,1.54-1.15,2.31l.04-.02Z"/>
        <path class="cls-1" d="m813.91,773.07c-.04.17-.09.35-.13.52.06-.16.12-.32.17-.47,0,0-.05-.05-.05-.05Z"/>
        <path class="cls-1" d="m860.17,787.76l.43-.36c-.15.1-.31.21-.46.31,0,0,.04.05.04.05Z"/>
        <path class="cls-1" d="m847.79,789.97c-.26-.18-.53-.37-.79-.55.26-.18.53-.35.79-.53,0,0-.06-.06-.06-.06,0,.4,0,.79,0,1.19,0,0,.06-.05.06-.05Z"/>
        <path class="cls-1" d="m968.41,733.65c.18-.27.36-.53.54-.8.18.27.36.54.54.8,0,0,.06-.06.06-.06-.39,0-.79,0-1.18,0,0,0,.05.05.05.05Z"/>
        <path class="cls-1" d="m868.06,788.87l-.42.72c0-.14-.03-.3.04-.4.09-.14.25-.22.38-.33h0Z"/>
        <path class="cls-1" d="m828.63,792.22c-.17-.04-.35-.08-.52-.12.16.06.32.11.48.17,0,0,.04-.05.04-.05Z"/>
        <path class="cls-1" d="m865.77,795.6c-.11.24-.22.47-.33.71.02-.12,0-.25.06-.34.08-.13.21-.22.32-.32,0,0-.05-.04-.05-.04Z"/>
        <path class="cls-1" d="m869.21,787.76c0-.76,0-1.52,0-2.28l-.03.03c.54.74.57,1.47,0,2.21l.04.04Z"/>
        <path class="cls-1" d="m915.39,753.94c.17.04.35.08.52.13-.16-.05-.32-.11-.49-.16l-.04.04Z"/>
        <path class="cls-1" d="m968.42,755.06c.22-.12.43-.24.65-.36-.09.08-.16.19-.26.24-.13.06-.29.06-.43.08l.04.04Z"/>
        <path class="cls-1" d="m909.74,758.44c.12.22.25.45.37.67-.08-.09-.2-.16-.25-.26-.06-.14-.05-.3-.07-.45,0,0-.05.04-.05.04Z"/>
        <path class="cls-1" d="m919.89,714.48s.05-.04.05-.04-.05.04-.05.04Z"/>
        <path class="cls-1" d="m934.54,725.75s.04-.04.04-.04c0,0-.04.04-.04.04Z"/>
        <path class="cls-1" d="m852.24,748.27l.04.04-.04-.04Z"/>
        <path class="cls-1" d="m904.11,743.75s.04.04.04.04c0,0-.04-.04-.04-.04Z"/>
        <path class="cls-1" d="m976.27,738.11s.04.04.04.04-.04-.04-.04-.04Z"/>
        <path class="cls-1" d="m803.77,769.68s.04.04.04.04c0,0-.04-.04-.04-.04Z"/>
        <path class="cls-1" d="m927.82,735.91s-.04-.04-.04-.04c0,0,.04.04.04.04Z"/>
        <path class="cls-1" d="m933.41,770.85s.05-.05.05-.05-.05.05-.05.05Z"/>
        <path class="cls-1" d="m813.95,773.11s-.05-.05-.05-.05.05.05.05.05Z"/>
        <path class="cls-1" d="m798.17,776.5s-.05-.05-.05-.05.05.05.05.05Z"/>
        <path class="cls-1" d="m808.31,746.02s-.03.03-.03.03c0,0,.03-.03.03-.03Z"/>
        <path class="cls-1" d="m915.43,753.91s-.04.04-.04.04c0,0,.04-.04.04-.04Z"/>
        <path class="cls-1" d="m792.54,753.9s-.04.04-.04.04c0,0,.04-.04.04-.04Z"/>
        <path class="cls-1" d="m968.37,755.02s.04.04.04.04c0,0-.04-.04-.04-.04Z"/>
        <path class="cls-1" d="m869.2,785.48s-.03.03-.03.03.03-.03.03-.03Z"/>
        <path class="cls-1" d="m852.28,748.31s-.04-.04-.04-.04c0,0,.04.04.04.04Z"/>
        <path class="cls-1" d="m922.18,759.58s-.04-.04-.04-.04c0,0,.04.04.04.04Z"/>
        <path class="cls-1" d="m869.16,787.71c-.37.39-.74.77-1.11,1.16,0,0,0,0,0,0,.39-.37.77-.74,1.16-1.11,0,0-.04-.04-.04-.04Z"/>
        <path class="cls-1" d="m957.14,751.65c-.38-.38-.76-.76-1.14-1.14,0,0-.04.04-.04.04.38.38.76.76,1.14,1.14,0,0,.04-.04.04-.04Z"/>
        <path class="cls-1" d="m792.5,759.54s.03.03.03.03-.03-.03-.03-.03Z"/>
        <path class="cls-1" d="m798.14,755.06s.02-.02.03-.02c0,0-.03.02-.03.02Z"/>
        <polygon class="cls-1" points="953.77 750.58 953.55 750.72 953.69 750.51 953.77 750.58"/>
        <path class="cls-1" d="m820.67,730.26s.04-.04.04-.04-.04.04-.04.04Z"/>
        <path class="cls-1" d="m880.5,802.42c-.41,0-.82,0-1.22,0,.41,0,.82,0,1.22,0Z"/>
        <path class="cls-1" d="m796.47,499.57c.04-.11-.07.46-.38.89-.16.23-.77.41-.98.28-1.16-.73-1.91-1.85-1.89-3.21.02-1.48.3-2.95.53-4.42.04-.28.35-.52.54-.77.14.11.31.19.4.33,1.22,1.91,2.15,3.9,1.78,6.9Z"/>
        <path class="cls-1" d="m764.38,527.89c.34.09.83.07.99.29.9,1.24,1.3,2.62.8,4.13-.1.29-.47.6-.77.67-.31.08-.81,0-1.01-.22-1.22-1.29-1.34-2.75-.44-4.54.07-.15.29-.22.43-.33Z"/>
        <path class="cls-1" d="m788.3,494.94c-.17-.3-.53-.65-.47-.88.32-1.18,1.29-1.78,2.49-1.54.22.04.54.62.47.84-.39,1.22-1.38,1.8-2.49,1.58Z"/>
        <path class="cls-1" d="m811.17,515.62c-.17-.49.15-1.02.73-1.2.57-.18,1.23.2,1.14.69-.06.31-.27.65-.53.84-.5.36-1.18.16-1.34-.33Z"/>
        <path class="cls-1" d="m769.34,530.56c.4.2.87.41,1.32.68.12.07.19.32.18.48-.04.43-.34.61-.77.48-.34-.11-.67-.27-.99-.43-.4-.21-.52-.53-.3-.89.08-.13.29-.17.56-.32Z"/>
        <path class="cls-1" d="m820.95,503.97c-.15-.25-.48-.54-.42-.74.14-.52.58-.85,1.13-.73.2.04.49.51.44.71-.14.51-.57.79-1.14.76Z"/>
        <path class="cls-1" d="m828.87,503.25c-.16.54-.83.84-1.33.51-.24-.16-.45-.6-.42-.88.06-.54.84-.86,1.3-.53.24.17.3.59.44.9Z"/>
        <path class="cls-1" d="m822.9,483.59c-.39-.19-.52-.5-.33-.89.07-.15.24-.32.39-.35.43-.08.75.18.65.61-.06.26-.46.43-.71.64Z"/>
        <path class="cls-1" d="m796.17,517.06c-.68.31-1.36.24-1.35-.15,0-.14.14-.36.26-.4.32-.1.66-.16,1-.17.13,0,.34.19.36.31.01.13-.17.27-.27.41Z"/>
        <path class="cls-1" d="m775.61,500.25c-.76,0-1.51,0-2.27-.01,0,0,.04.06.04.06.59-.61,1.14-1.25,1.79-1.79.18-.15.71-.1.92.06.16.12.16.6.08.87-.1.31-.38.56-.58.84l.02-.02Z"/>
        <path class="cls-1" d="m770.16,500.04c1.07.08,2.15.16,3.22.25,0,0-.04-.06-.04-.06-.23.27-.42.58-.69.81-1.26,1.08-1.65.99-2.83-.63,0,0,.33-.36.33-.36Z"/>
        <path class="cls-1" d="m756.42,513.78c.38-.39.76-.78,1.14-1.17.16.48.4.96.43,1.45.02.22-.36.63-.61.66-.24.04-.55-.26-.79-.47-.11-.1-.13-.31-.18-.48Z"/>
        <path class="cls-1" d="m769.59,536.37c.29.15.71.23.84.46.21.39-.06.68-.52.66-.17,0-.38-.09-.48-.22-.27-.35-.2-.66.16-.91Z"/>
        <path class="cls-1" d="m833.41,480.77c0-.16-.06-.38.02-.49.06-.08.31-.02.48-.03,0,.17,0,.35.01.52h-.51Z"/>
        <path class="cls-1" d="m780.08,493.52c.44.18,1.15.1.95.91-.01.04-.41.08-.45.02-.18-.31-.3-.66-.45-.99,0,0-.06.06-.06.06Z"/>
        <polygon class="cls-1" points="783.23 504.71 783.56 505.02 783.16 505.14 783.23 504.71"/>
        <polygon class="cls-1" points="815.96 511.5 816.26 511.79 815.89 511.9 815.96 511.5"/>
        <polygon class="cls-1" points="783.58 519.83 783.56 519.45 783.88 519.59 783.58 519.83"/>
        <path class="cls-1" d="m760.22,530.1c-.14-.07-.28-.13-.42-.2.07-.14.15-.42.21-.41.5.02.57.25.21.62Z"/>
        <path class="cls-1" d="m775.59,500.27c.23.11.46.23.69.34-.12-.01-.26,0-.35-.05-.12-.07-.21-.21-.32-.31,0,0-.02.02-.02.02Z"/>
      </g>
    </g>
  </g>
</svg>